<?xml version="1.0" encoding="UTF-8" standalone="no"?>
<!DOCTYPE svg PUBLIC "-//W3C//DTD SVG 1.1//EN" "http://www.w3.org/Graphics/SVG/1.1/DTD/svg11.dtd">
<svg version="1.1" xmlns="http://www.w3.org/2000/svg" xmlns:xlink="http://www.w3.org/1999/xlink" preserveAspectRatio="xMidYMid meet" viewBox="0 0 100 100" width="100" height="100"><defs><path d="M71.8 54.74C71.8 66.39 62.34 75.86 50.68 75.86C39.03 75.86 29.57 66.39 29.57 54.74C29.57 43.08 39.03 33.62 50.68 33.62C62.34 33.62 71.8 43.08 71.8 54.74Z" id="c1VG3BxgEG"></path><path d="M5.51 76.46C5.54 77.23 5.55 77.71 5.56 77.9C5.64 80.55 7.55 82.78 10.15 83.27C10.41 83.32 11.05 83.44 12.08 83.64L87.91 83.63C88.34 83.6 88.6 83.58 88.71 83.58C91.84 83.37 94.28 80.77 94.28 77.62C94.28 77.39 94.28 76.8 94.28 75.86L94.49 32.21C94.49 31.61 94.49 31.23 94.49 31.08C94.49 27.77 92.08 24.95 88.81 24.44C88.81 24.44 88.81 24.44 88.81 24.44L66.69 24.44C66.54 22.52 66.45 21.32 66.42 20.84C66.23 18.31 64.13 16.36 61.6 16.36C61.55 16.36 61.41 16.36 61.2 16.36L37.39 16.36C37.39 16.36 37.39 16.36 37.39 16.36C34.48 17.2 32.45 19.83 32.37 22.85C32.36 23.18 32.34 24.01 32.31 25.33L26.36 25.33C26.19 24.02 26.08 23.19 26.03 22.87C25.86 21.54 24.73 20.55 23.39 20.55C21.41 20.55 19 20.55 17.31 20.55C15.05 20.55 13.09 22.09 12.54 24.28C12.5 24.42 12.42 24.77 12.28 25.33C11.77 25.33 11.45 25.33 11.33 25.33C8.22 25.33 5.7 27.85 5.7 30.96C5.7 31.13 5.7 31.54 5.7 32.21L5.51 76.46Z" id="bEtKlCtLh"></path></defs><g><g><g><g><g><use xlink:href="#c1VG3BxgEG" opacity="1" fill-opacity="0" stroke="#ffffff" stroke-width="4" stroke-opacity="1"></use></g></g><g><g><use xlink:href="#bEtKlCtLh" opacity="1" fill-opacity="0" stroke="#ffffff" stroke-width="4" stroke-opacity="1"></use></g></g></g></g></g></svg>