<?xml version="1.0" encoding="UTF-8" standalone="no"?>
<!DOCTYPE svg PUBLIC "-//W3C//DTD SVG 1.1//EN" "http://www.w3.org/Graphics/SVG/1.1/DTD/svg11.dtd">
<svg version="1.1" xmlns="http://www.w3.org/2000/svg" xmlns:xlink="http://www.w3.org/1999/xlink" preserveAspectRatio="xMidYMid meet" viewBox="0 0 100 100" width="100" height="100"><defs><path d="M78.95 53.95C78.95 69.92 65.98 82.89 50 82.89C34.02 82.89 21.05 69.92 21.05 53.95C21.05 37.97 34.02 25 50 25C65.98 25 78.95 37.97 78.95 53.95Z" id="f2FXLwlxVy"></path><path d="M46.88 82.8C45.37 71.62 44.43 64.63 44.06 61.83C43.47 57.48 43.4 53.08 43.85 48.71C44.17 45.55 44.97 37.64 46.26 25" id="aB4FAAPPn"></path><path d="M53.13 82.8C54.63 71.62 55.57 64.63 55.94 61.83C56.53 57.48 56.6 53.08 56.15 48.71C55.83 45.55 55.03 37.64 53.74 25" id="f1tRRRcoek"></path><path d="M38.01 81.25C36.63 70.96 35.77 64.53 35.42 61.96C34.88 57.96 34.82 53.9 35.23 49.88C35.52 46.98 36.26 39.71 37.45 28.07" id="c1TQCEBOld"></path><path d="M62.5 81.25C63.88 70.96 64.75 64.53 65.09 61.96C65.63 57.96 65.7 53.9 65.29 49.88C64.99 46.98 64.25 39.71 63.07 28.07" id="aZFyuYjKw"></path><path d="M71.87 72.67C73.03 65.64 73.75 61.24 74.03 59.49C74.48 56.77 74.53 54 74.19 51.27C73.95 49.29 73.33 44.32 72.35 36.37" id="b58IYEB44I"></path><path d="M28.13 72.49C26.97 65.46 26.25 61.07 25.97 59.31C25.52 56.59 25.47 53.83 25.81 51.09C26.05 49.11 26.67 44.14 27.65 36.2" id="eF3MNk9xs"></path><path d="M21.03 51.69C32.17 49.94 39.14 48.84 41.93 48.4C46.26 47.72 50.67 47.55 55.04 47.89C58.21 48.14 66.13 48.77 78.8 49.77" id="a2xk8d9FDE"></path><path d="M21.17 57.94C32.38 59.19 39.39 59.97 42.2 60.28C46.56 60.77 50.97 60.74 55.32 60.2C58.48 59.8 66.36 58.82 78.97 57.25" id="cn0P4w3rH"></path><path d="M22.38 42.8C32.63 41.18 39.04 40.17 41.6 39.77C45.59 39.14 49.64 38.98 53.67 39.3C56.59 39.53 63.87 40.11 75.53 41.02" id="e1KV1ekzit"></path><path d="M22.93 67.28C33.25 68.43 39.7 69.15 42.28 69.43C46.29 69.88 50.34 69.86 54.35 69.36C57.25 68.99 64.51 68.09 76.11 66.64" id="a1rLI7IxJE"></path><path d="M31.72 76.46C38.78 77.45 43.19 78.07 44.95 78.32C47.68 78.7 50.45 78.69 53.17 78.29C55.15 78 60.1 77.27 68.02 76.11" id="abSD5KLEJ"></path><path d="M30.91 32.72C37.91 31.4 42.29 30.59 44.04 30.26C46.74 29.75 49.51 29.63 52.25 29.91C54.24 30.11 59.22 30.61 67.18 31.42" id="d5RtFtczsV"></path><path d="M45.38 20.5L54.62 20.5L54.62 25L45.38 25L45.38 20.5Z" id="c1kF1LDQVB"></path><path d="M50 20.28L50 13.02" id="e1bhXnf2ol"></path><path d="M16.82 6.73L16.82 6.73L16.83 6.73L16.83 6.74L16.83 6.74L16.84 6.74L16.84 6.74L16.84 6.74L16.85 6.74L16.85 6.74L16.85 6.74L16.86 6.74L16.86 6.75L16.86 6.75L16.86 6.75L16.87 6.75L16.87 6.75L16.87 6.76L16.88 6.76L16.88 6.76L16.88 6.76L16.88 6.77L16.88 6.77L16.89 6.77L16.89 6.78L16.89 6.78L16.89 6.78L16.89 6.78L16.89 6.79L16.9 6.79L16.9 6.79L16.9 6.8L16.9 6.8L16.9 6.8L16.9 6.81L16.9 6.81L16.9 6.81L16.9 6.82L16.9 6.82L16.9 8.58L18.66 8.58L18.67 8.58L18.67 8.58L18.67 8.58L18.68 8.58L18.68 8.58L18.68 8.59L18.69 8.59L18.69 8.59L18.69 8.59L18.7 8.59L18.7 8.59L18.7 8.59L18.71 8.59L18.71 8.6L18.71 8.6L18.71 8.6L18.72 8.6L18.72 8.6L18.72 8.61L18.72 8.61L18.73 8.61L18.73 8.61L18.73 8.62L18.73 8.62L18.73 8.62L18.74 8.62L18.74 8.63L18.74 8.63L18.74 8.63L18.74 8.64L18.74 8.64L18.75 8.64L18.75 8.65L18.75 8.65L18.75 8.65L18.75 8.66L18.75 8.66L18.75 8.66L18.75 8.67L18.75 8.67L18.75 10.08L18.75 10.08L18.75 10.09L18.75 10.09L18.75 10.09L18.75 10.1L18.75 10.1L18.75 10.1L18.75 10.11L18.74 10.11L18.74 10.11L18.74 10.12L18.74 10.12L18.74 10.12L18.74 10.13L18.73 10.13L18.73 10.13L18.73 10.13L18.73 10.14L18.73 10.14L18.72 10.14L18.72 10.14L18.72 10.15L18.72 10.15L18.71 10.15L18.71 10.15L18.71 10.15L18.71 10.16L18.7 10.16L18.7 10.16L18.7 10.16L18.69 10.16L18.69 10.16L18.69 10.16L18.68 10.16L18.68 10.17L18.68 10.17L18.67 10.17L18.67 10.17L18.67 10.17L18.66 10.17L16.9 10.17L16.9 11.93L16.9 11.93L16.9 11.94L16.9 11.94L16.9 11.94L16.9 11.95L16.9 11.95L16.9 11.95L16.9 11.96L16.9 11.96L16.89 11.96L16.89 11.97L16.89 11.97L16.89 11.97L16.89 11.97L16.89 11.98L16.88 11.98L16.88 11.98L16.88 11.99L16.88 11.99L16.88 11.99L16.87 11.99L16.87 12L16.87 12L16.86 12L16.86 12L16.86 12L16.86 12.01L16.85 12.01L16.85 12.01L16.85 12.01L16.84 12.01L16.84 12.01L16.84 12.01L16.83 12.01L16.83 12.01L16.83 12.02L16.82 12.02L16.82 12.02L16.82 12.02L16.81 12.02L15.4 12.02L15.4 12.02L15.4 12.02L15.39 12.02L15.39 12.02L15.39 12.01L15.38 12.01L15.38 12.01L15.38 12.01L15.37 12.01L15.37 12.01L15.37 12.01L15.36 12.01L15.36 12.01L15.36 12L15.35 12L15.35 12L15.35 12L15.35 12L15.34 11.99L15.34 11.99L15.34 11.99L15.34 11.99L15.34 11.98L15.33 11.98L15.33 11.98L15.33 11.97L15.33 11.97L15.33 11.97L15.32 11.97L15.32 11.96L15.32 11.96L15.32 11.96L15.32 11.95L15.32 11.95L15.32 11.95L15.32 11.94L15.32 11.94L15.32 11.94L15.32 11.93L15.32 11.93L15.32 10.17L13.56 10.17L13.55 10.17L13.55 10.17L13.54 10.17L13.54 10.17L13.54 10.17L13.53 10.16L13.53 10.16L13.53 10.16L13.52 10.16L13.52 10.16L13.52 10.16L13.51 10.16L13.51 10.16L13.51 10.15L13.51 10.15L13.5 10.15L13.5 10.15L13.5 10.15L13.5 10.14L13.49 10.14L13.49 10.14L13.49 10.14L13.49 10.13L13.48 10.13L13.48 10.13L13.48 10.13L13.48 10.12L13.48 10.12L13.48 10.12L13.47 10.11L13.47 10.11L13.47 10.11L13.47 10.1L13.47 10.1L13.47 10.1L13.47 10.09L13.47 10.09L13.47 10.09L13.47 10.08L13.47 10.08L13.47 8.67L13.47 8.67L13.47 8.66L13.47 8.66L13.47 8.66L13.47 8.65L13.47 8.65L13.47 8.65L13.47 8.64L13.47 8.64L13.47 8.64L13.48 8.63L13.48 8.63L13.48 8.63L13.48 8.62L13.48 8.62L13.48 8.62L13.49 8.62L13.49 8.61L13.49 8.61L13.49 8.61L13.5 8.61L13.5 8.6L13.5 8.6L13.5 8.6L13.51 8.6L13.51 8.6L13.51 8.59L13.51 8.59L13.52 8.59L13.52 8.59L13.52 8.59L13.53 8.59L13.53 8.59L13.53 8.59L13.54 8.58L13.54 8.58L13.54 8.58L13.55 8.58L13.55 8.58L13.56 8.58L15.32 8.58L15.32 6.82L15.32 6.82L15.32 6.81L15.32 6.81L15.32 6.81L15.32 6.8L15.32 6.8L15.32 6.8L15.32 6.79L15.32 6.79L15.32 6.79L15.32 6.78L15.33 6.78L15.33 6.78L15.33 6.78L15.33 6.77L15.33 6.77L15.34 6.77L15.34 6.76L15.34 6.76L15.34 6.76L15.34 6.76L15.35 6.75L15.35 6.75L15.35 6.75L15.35 6.75L15.36 6.75L15.36 6.74L15.36 6.74L15.37 6.74L15.37 6.74L15.37 6.74L15.38 6.74L15.38 6.74L15.38 6.74L15.39 6.74L15.39 6.73L15.39 6.73L15.4 6.73L15.4 6.73L15.4 6.73L16.81 6.73L16.82 6.73L16.82 6.73Z" id="a3EUWMosf2"></path><path d="M91.82 30.01L91.82 30.01L91.83 30.01L91.83 30.01L91.83 30.01L91.84 30.02L91.84 30.02L91.84 30.02L91.85 30.02L91.85 30.02L91.85 30.02L91.86 30.02L91.86 30.02L91.86 30.03L91.86 30.03L91.87 30.03L91.87 30.03L91.87 30.04L91.88 30.04L91.88 30.04L91.88 30.04L91.88 30.05L91.88 30.05L91.89 30.05L91.89 30.05L91.89 30.06L91.89 30.06L91.89 30.06L91.89 30.07L91.9 30.07L91.9 30.07L91.9 30.08L91.9 30.08L91.9 30.08L91.9 30.09L91.9 30.09L91.9 30.09L91.9 30.1L91.9 30.1L91.9 31.86L93.66 31.86L93.67 31.86L93.67 31.86L93.67 31.86L93.68 31.86L93.68 31.86L93.68 31.86L93.69 31.86L93.69 31.87L93.69 31.87L93.7 31.87L93.7 31.87L93.7 31.87L93.71 31.87L93.71 31.87L93.71 31.88L93.71 31.88L93.72 31.88L93.72 31.88L93.72 31.88L93.72 31.89L93.73 31.89L93.73 31.89L93.73 31.89L93.73 31.9L93.73 31.9L93.74 31.9L93.74 31.91L93.74 31.91L93.74 31.91L93.74 31.91L93.74 31.92L93.75 31.92L93.75 31.92L93.75 31.93L93.75 31.93L93.75 31.93L93.75 31.94L93.75 31.94L93.75 31.95L93.75 31.95L93.75 33.36L93.75 33.36L93.75 33.36L93.75 33.37L93.75 33.37L93.75 33.38L93.75 33.38L93.75 33.38L93.75 33.39L93.74 33.39L93.74 33.39L93.74 33.4L93.74 33.4L93.74 33.4L93.74 33.4L93.73 33.41L93.73 33.41L93.73 33.41L93.73 33.41L93.73 33.42L93.72 33.42L93.72 33.42L93.72 33.42L93.72 33.43L93.71 33.43L93.71 33.43L93.71 33.43L93.71 33.43L93.7 33.44L93.7 33.44L93.7 33.44L93.69 33.44L93.69 33.44L93.69 33.44L93.68 33.44L93.68 33.44L93.68 33.44L93.67 33.45L93.67 33.45L93.67 33.45L93.66 33.45L91.9 33.45L91.9 35.21L91.9 35.21L91.9 35.21L91.9 35.22L91.9 35.22L91.9 35.22L91.9 35.23L91.9 35.23L91.9 35.23L91.9 35.24L91.89 35.24L91.89 35.24L91.89 35.25L91.89 35.25L91.89 35.25L91.89 35.26L91.88 35.26L91.88 35.26L91.88 35.26L91.88 35.27L91.88 35.27L91.87 35.27L91.87 35.27L91.87 35.28L91.86 35.28L91.86 35.28L91.86 35.28L91.86 35.28L91.85 35.28L91.85 35.29L91.85 35.29L91.84 35.29L91.84 35.29L91.84 35.29L91.83 35.29L91.83 35.29L91.83 35.29L91.82 35.29L91.82 35.29L91.82 35.29L91.81 35.29L90.4 35.29L90.4 35.29L90.4 35.29L90.39 35.29L90.39 35.29L90.39 35.29L90.38 35.29L90.38 35.29L90.38 35.29L90.37 35.29L90.37 35.29L90.37 35.29L90.36 35.28L90.36 35.28L90.36 35.28L90.35 35.28L90.35 35.28L90.35 35.28L90.35 35.27L90.34 35.27L90.34 35.27L90.34 35.27L90.34 35.26L90.34 35.26L90.33 35.26L90.33 35.26L90.33 35.25L90.33 35.25L90.33 35.25L90.32 35.24L90.32 35.24L90.32 35.24L90.32 35.23L90.32 35.23L90.32 35.23L90.32 35.22L90.32 35.22L90.32 35.22L90.32 35.21L90.32 35.21L90.32 35.21L90.32 33.45L88.56 33.45L88.55 33.45L88.55 33.45L88.54 33.45L88.54 33.44L88.54 33.44L88.53 33.44L88.53 33.44L88.53 33.44L88.52 33.44L88.52 33.44L88.52 33.44L88.51 33.44L88.51 33.43L88.51 33.43L88.51 33.43L88.5 33.43L88.5 33.43L88.5 33.42L88.5 33.42L88.49 33.42L88.49 33.42L88.49 33.41L88.49 33.41L88.48 33.41L88.48 33.41L88.48 33.4L88.48 33.4L88.48 33.4L88.48 33.4L88.47 33.39L88.47 33.39L88.47 33.39L88.47 33.38L88.47 33.38L88.47 33.38L88.47 33.37L88.47 33.37L88.47 33.36L88.47 33.36L88.47 33.36L88.47 31.95L88.47 31.95L88.47 31.94L88.47 31.94L88.47 31.93L88.47 31.93L88.47 31.93L88.47 31.92L88.47 31.92L88.47 31.92L88.47 31.91L88.48 31.91L88.48 31.91L88.48 31.91L88.48 31.9L88.48 31.9L88.48 31.9L88.49 31.89L88.49 31.89L88.49 31.89L88.49 31.89L88.5 31.88L88.5 31.88L88.5 31.88L88.5 31.88L88.51 31.88L88.51 31.87L88.51 31.87L88.51 31.87L88.52 31.87L88.52 31.87L88.52 31.87L88.53 31.87L88.53 31.86L88.53 31.86L88.54 31.86L88.54 31.86L88.54 31.86L88.55 31.86L88.55 31.86L88.56 31.86L90.32 31.86L90.32 30.1L90.32 30.1L90.32 30.09L90.32 30.09L90.32 30.09L90.32 30.08L90.32 30.08L90.32 30.08L90.32 30.07L90.32 30.07L90.32 30.07L90.32 30.06L90.33 30.06L90.33 30.06L90.33 30.05L90.33 30.05L90.33 30.05L90.34 30.05L90.34 30.04L90.34 30.04L90.34 30.04L90.34 30.04L90.35 30.03L90.35 30.03L90.35 30.03L90.35 30.03L90.36 30.02L90.36 30.02L90.36 30.02L90.37 30.02L90.37 30.02L90.37 30.02L90.38 30.02L90.38 30.02L90.38 30.01L90.39 30.01L90.39 30.01L90.39 30.01L90.4 30.01L90.4 30.01L90.4 30.01L91.81 30.01L91.82 30.01L91.82 30.01Z" id="bmVKLUiyJ"></path><path d="M17.92 71.88L17.92 71.88L17.93 71.88L17.93 71.88L17.93 71.88L17.94 71.88L17.94 71.88L17.94 71.88L17.95 71.88L17.95 71.88L17.95 71.88L17.96 71.89L17.96 71.89L17.96 71.89L17.97 71.89L17.97 71.89L17.97 71.9L17.97 71.9L17.98 71.9L17.98 71.9L17.98 71.91L17.98 71.91L17.98 71.91L17.99 71.91L17.99 71.92L17.99 71.92L17.99 71.92L17.99 71.93L17.99 71.93L18 71.93L18 71.94L18 71.94L18 71.94L18 71.95L18 71.95L18 71.95L18 71.96L18 71.96L18 71.96L18 73.72L19.76 73.72L19.77 73.72L19.77 73.72L19.77 73.72L19.78 73.73L19.78 73.73L19.78 73.73L19.79 73.73L19.79 73.73L19.79 73.73L19.8 73.73L19.8 73.73L19.8 73.73L19.81 73.74L19.81 73.74L19.81 73.74L19.81 73.74L19.82 73.74L19.82 73.75L19.82 73.75L19.82 73.75L19.83 73.75L19.83 73.75L19.83 73.76L19.83 73.76L19.84 73.76L19.84 73.77L19.84 73.77L19.84 73.77L19.84 73.77L19.84 73.78L19.84 73.78L19.85 73.78L19.85 73.79L19.85 73.79L19.85 73.79L19.85 73.8L19.85 73.8L19.85 73.8L19.85 73.81L19.85 73.81L19.85 75.22L19.85 75.22L19.85 75.23L19.85 75.23L19.85 75.24L19.85 75.24L19.85 75.24L19.85 75.25L19.85 75.25L19.84 75.25L19.84 75.26L19.84 75.26L19.84 75.26L19.84 75.26L19.84 75.27L19.84 75.27L19.83 75.27L19.83 75.28L19.83 75.28L19.83 75.28L19.82 75.28L19.82 75.29L19.82 75.29L19.82 75.29L19.81 75.29L19.81 75.29L19.81 75.3L19.81 75.3L19.8 75.3L19.8 75.3L19.8 75.3L19.79 75.3L19.79 75.3L19.79 75.31L19.78 75.31L19.78 75.31L19.78 75.31L19.77 75.31L19.77 75.31L19.77 75.31L19.76 75.31L18 75.31L18 77.07L18 77.07L18 77.08L18 77.08L18 77.08L18 77.09L18 77.09L18 77.09L18 77.1L18 77.1L17.99 77.1L17.99 77.11L17.99 77.11L17.99 77.11L17.99 77.12L17.99 77.12L17.98 77.12L17.98 77.12L17.98 77.13L17.98 77.13L17.98 77.13L17.97 77.13L17.97 77.14L17.97 77.14L17.97 77.14L17.96 77.14L17.96 77.14L17.96 77.15L17.95 77.15L17.95 77.15L17.95 77.15L17.94 77.15L17.94 77.15L17.94 77.15L17.93 77.16L17.93 77.16L17.93 77.16L17.92 77.16L17.92 77.16L17.92 77.16L17.91 77.16L16.5 77.16L16.5 77.16L16.5 77.16L16.49 77.16L16.49 77.16L16.49 77.16L16.48 77.16L16.48 77.15L16.48 77.15L16.47 77.15L16.47 77.15L16.47 77.15L16.46 77.15L16.46 77.15L16.46 77.14L16.46 77.14L16.45 77.14L16.45 77.14L16.45 77.14L16.44 77.13L16.44 77.13L16.44 77.13L16.44 77.13L16.44 77.12L16.43 77.12L16.43 77.12L16.43 77.12L16.43 77.11L16.43 77.11L16.42 77.11L16.42 77.1L16.42 77.1L16.42 77.1L16.42 77.09L16.42 77.09L16.42 77.09L16.42 77.08L16.42 77.08L16.42 77.08L16.42 77.07L16.42 77.07L16.42 75.31L14.66 75.31L14.65 75.31L14.65 75.31L14.64 75.31L14.64 75.31L14.64 75.31L14.63 75.31L14.63 75.31L14.63 75.3L14.62 75.3L14.62 75.3L14.62 75.3L14.62 75.3L14.61 75.3L14.61 75.3L14.61 75.29L14.6 75.29L14.6 75.29L14.6 75.29L14.6 75.29L14.59 75.28L14.59 75.28L14.59 75.28L14.59 75.28L14.58 75.27L14.58 75.27L14.58 75.27L14.58 75.26L14.58 75.26L14.58 75.26L14.57 75.26L14.57 75.25L14.57 75.25L14.57 75.25L14.57 75.24L14.57 75.24L14.57 75.24L14.57 75.23L14.57 75.23L14.57 75.22L14.57 75.22L14.57 73.81L14.57 73.81L14.57 73.8L14.57 73.8L14.57 73.8L14.57 73.79L14.57 73.79L14.57 73.79L14.57 73.78L14.57 73.78L14.57 73.78L14.58 73.77L14.58 73.77L14.58 73.77L14.58 73.77L14.58 73.76L14.58 73.76L14.59 73.76L14.59 73.75L14.59 73.75L14.59 73.75L14.6 73.75L14.6 73.75L14.6 73.74L14.6 73.74L14.61 73.74L14.61 73.74L14.61 73.74L14.62 73.73L14.62 73.73L14.62 73.73L14.62 73.73L14.63 73.73L14.63 73.73L14.63 73.73L14.64 73.73L14.64 73.73L14.64 73.72L14.65 73.72L14.65 73.72L14.66 73.72L16.42 73.72L16.42 71.96L16.42 71.96L16.42 71.96L16.42 71.95L16.42 71.95L16.42 71.95L16.42 71.94L16.42 71.94L16.42 71.94L16.42 71.93L16.42 71.93L16.42 71.93L16.43 71.92L16.43 71.92L16.43 71.92L16.43 71.91L16.43 71.91L16.44 71.91L16.44 71.91L16.44 71.9L16.44 71.9L16.44 71.9L16.45 71.9L16.45 71.89L16.45 71.89L16.46 71.89L16.46 71.89L16.46 71.89L16.46 71.88L16.47 71.88L16.47 71.88L16.47 71.88L16.48 71.88L16.48 71.88L16.48 71.88L16.49 71.88L16.49 71.88L16.49 71.88L16.5 71.88L16.5 71.88L16.5 71.88L17.91 71.88L17.92 71.88L17.92 71.88Z" id="a13cFyPJvB"></path><path d="M76.2 79.09L76.2 79.09L76.2 79.09L76.21 79.09L76.21 79.09L76.21 79.1L76.22 79.1L76.22 79.1L76.22 79.1L76.23 79.1L76.23 79.1L76.23 79.1L76.23 79.11L76.24 79.11L76.24 79.11L76.24 79.11L76.25 79.11L76.25 79.12L76.25 79.12L76.25 79.12L76.25 79.12L76.26 79.13L76.26 79.13L76.26 79.13L76.26 79.13L76.26 79.14L76.27 79.14L76.27 79.14L76.27 79.15L76.27 79.15L76.27 79.15L76.27 79.16L76.27 79.16L76.27 79.16L76.27 79.17L76.28 79.17L76.28 79.17L76.28 79.18L76.28 79.18L76.28 80.94L78.04 80.94L78.04 80.94L78.04 80.94L78.05 80.94L78.05 80.94L78.05 80.94L78.06 80.94L78.06 80.94L78.06 80.95L78.07 80.95L78.07 80.95L78.07 80.95L78.08 80.95L78.08 80.95L78.08 80.95L78.09 80.96L78.09 80.96L78.09 80.96L78.09 80.96L78.1 80.96L78.1 80.97L78.1 80.97L78.1 80.97L78.11 80.97L78.11 80.98L78.11 80.98L78.11 80.98L78.11 80.99L78.12 80.99L78.12 80.99L78.12 80.99L78.12 81L78.12 81L78.12 81L78.12 81.01L78.12 81.01L78.12 81.01L78.12 81.02L78.12 81.02L78.12 81.03L78.13 81.03L78.13 82.44L78.12 82.44L78.12 82.45L78.12 82.45L78.12 82.45L78.12 82.46L78.12 82.46L78.12 82.46L78.12 82.47L78.12 82.47L78.12 82.47L78.12 82.48L78.12 82.48L78.11 82.48L78.11 82.48L78.11 82.49L78.11 82.49L78.11 82.49L78.1 82.5L78.1 82.5L78.1 82.5L78.1 82.5L78.09 82.5L78.09 82.51L78.09 82.51L78.09 82.51L78.08 82.51L78.08 82.51L78.08 82.52L78.07 82.52L78.07 82.52L78.07 82.52L78.06 82.52L78.06 82.52L78.06 82.52L78.05 82.52L78.05 82.52L78.05 82.53L78.04 82.53L78.04 82.53L78.04 82.53L76.28 82.53L76.28 84.29L76.28 84.29L76.28 84.29L76.28 84.3L76.27 84.3L76.27 84.3L76.27 84.31L76.27 84.31L76.27 84.31L76.27 84.32L76.27 84.32L76.27 84.32L76.27 84.33L76.26 84.33L76.26 84.33L76.26 84.34L76.26 84.34L76.26 84.34L76.25 84.34L76.25 84.35L76.25 84.35L76.25 84.35L76.25 84.35L76.24 84.36L76.24 84.36L76.24 84.36L76.23 84.36L76.23 84.36L76.23 84.37L76.23 84.37L76.22 84.37L76.22 84.37L76.22 84.37L76.21 84.37L76.21 84.37L76.21 84.37L76.2 84.37L76.2 84.37L76.2 84.37L76.19 84.37L76.19 84.38L74.78 84.38L74.78 84.37L74.77 84.37L74.77 84.37L74.76 84.37L74.76 84.37L74.76 84.37L74.75 84.37L74.75 84.37L74.75 84.37L74.74 84.37L74.74 84.37L74.74 84.37L74.74 84.36L74.73 84.36L74.73 84.36L74.73 84.36L74.72 84.36L74.72 84.35L74.72 84.35L74.72 84.35L74.71 84.35L74.71 84.34L74.71 84.34L74.71 84.34L74.71 84.34L74.7 84.33L74.7 84.33L74.7 84.33L74.7 84.32L74.7 84.32L74.7 84.32L74.7 84.31L74.69 84.31L74.69 84.31L74.69 84.3L74.69 84.3L74.69 84.3L74.69 84.29L74.69 84.29L74.69 84.29L74.69 82.53L72.93 82.53L72.93 82.53L72.92 82.53L72.92 82.53L72.92 82.52L72.91 82.52L72.91 82.52L72.91 82.52L72.9 82.52L72.9 82.52L72.9 82.52L72.89 82.52L72.89 82.52L72.89 82.51L72.88 82.51L72.88 82.51L72.88 82.51L72.88 82.51L72.87 82.5L72.87 82.5L72.87 82.5L72.87 82.5L72.86 82.5L72.86 82.49L72.86 82.49L72.86 82.49L72.86 82.48L72.85 82.48L72.85 82.48L72.85 82.48L72.85 82.47L72.85 82.47L72.85 82.47L72.85 82.46L72.84 82.46L72.84 82.46L72.84 82.45L72.84 82.45L72.84 82.45L72.84 82.44L72.84 82.44L72.84 81.03L72.84 81.03L72.84 81.02L72.84 81.02L72.84 81.01L72.84 81.01L72.84 81.01L72.85 81L72.85 81L72.85 81L72.85 80.99L72.85 80.99L72.85 80.99L72.85 80.99L72.86 80.98L72.86 80.98L72.86 80.98L72.86 80.97L72.86 80.97L72.87 80.97L72.87 80.97L72.87 80.96L72.87 80.96L72.88 80.96L72.88 80.96L72.88 80.96L72.88 80.95L72.89 80.95L72.89 80.95L72.89 80.95L72.9 80.95L72.9 80.95L72.9 80.95L72.91 80.94L72.91 80.94L72.91 80.94L72.92 80.94L72.92 80.94L72.92 80.94L72.93 80.94L72.93 80.94L74.69 80.94L74.69 79.18L74.69 79.18L74.69 79.17L74.69 79.17L74.69 79.17L74.69 79.16L74.69 79.16L74.69 79.16L74.7 79.15L74.7 79.15L74.7 79.15L74.7 79.14L74.7 79.14L74.7 79.14L74.7 79.13L74.71 79.13L74.71 79.13L74.71 79.13L74.71 79.12L74.71 79.12L74.72 79.12L74.72 79.12L74.72 79.11L74.72 79.11L74.73 79.11L74.73 79.11L74.73 79.11L74.74 79.1L74.74 79.1L74.74 79.1L74.74 79.1L74.75 79.1L74.75 79.1L74.75 79.1L74.76 79.09L74.76 79.09L74.76 79.09L74.77 79.09L74.77 79.09L74.78 79.09L74.78 79.09L76.19 79.09L76.19 79.09L76.2 79.09Z" id="cv0Of5wbz"></path><path d="M80.74 18.75L80.75 18.75L80.75 18.75L80.75 18.75L80.76 18.75L80.76 18.75L80.76 18.75L80.77 18.76L80.77 18.76L80.77 18.76L80.78 18.76L80.78 18.76L80.78 18.76L80.79 18.77L80.79 18.77L80.79 18.77L80.79 18.77L80.8 18.77L80.8 18.78L80.8 18.78L80.8 18.78L80.8 18.78L80.81 18.79L80.81 18.79L80.81 18.79L80.81 18.79L80.81 18.8L80.82 18.8L80.82 18.8L80.82 18.81L80.82 18.81L80.82 18.81L80.82 18.82L80.82 18.82L80.82 18.82L80.82 18.83L80.82 18.83L80.82 18.83L80.82 18.84L80.82 20.6L82.58 20.6L82.59 20.6L82.59 20.6L82.6 20.6L82.6 20.6L82.6 20.6L82.61 20.6L82.61 20.6L82.61 20.6L82.62 20.6L82.62 20.61L82.62 20.61L82.63 20.61L82.63 20.61L82.63 20.61L82.63 20.61L82.64 20.62L82.64 20.62L82.64 20.62L82.64 20.62L82.65 20.62L82.65 20.63L82.65 20.63L82.65 20.63L82.66 20.64L82.66 20.64L82.66 20.64L82.66 20.64L82.66 20.65L82.66 20.65L82.67 20.65L82.67 20.66L82.67 20.66L82.67 20.66L82.67 20.67L82.67 20.67L82.67 20.67L82.67 20.68L82.67 20.68L82.67 20.68L82.67 20.69L82.67 22.1L82.67 22.1L82.67 22.1L82.67 22.11L82.67 22.11L82.67 22.11L82.67 22.12L82.67 22.12L82.67 22.12L82.67 22.13L82.67 22.13L82.66 22.13L82.66 22.14L82.66 22.14L82.66 22.14L82.66 22.15L82.66 22.15L82.65 22.15L82.65 22.15L82.65 22.16L82.65 22.16L82.64 22.16L82.64 22.16L82.64 22.16L82.64 22.17L82.63 22.17L82.63 22.17L82.63 22.17L82.63 22.17L82.62 22.18L82.62 22.18L82.62 22.18L82.61 22.18L82.61 22.18L82.61 22.18L82.6 22.18L82.6 22.18L82.6 22.18L82.59 22.18L82.59 22.18L82.58 22.18L80.82 22.18L80.82 23.94L80.82 23.95L80.82 23.95L80.82 23.96L80.82 23.96L80.82 23.96L80.82 23.97L80.82 23.97L80.82 23.97L80.82 23.98L80.82 23.98L80.82 23.98L80.81 23.99L80.81 23.99L80.81 23.99L80.81 23.99L80.81 24L80.8 24L80.8 24L80.8 24L80.8 24.01L80.8 24.01L80.79 24.01L80.79 24.01L80.79 24.02L80.79 24.02L80.78 24.02L80.78 24.02L80.78 24.02L80.77 24.02L80.77 24.03L80.77 24.03L80.76 24.03L80.76 24.03L80.76 24.03L80.75 24.03L80.75 24.03L80.75 24.03L80.74 24.03L80.74 24.03L80.74 24.03L79.33 24.03L79.32 24.03L79.32 24.03L79.32 24.03L79.31 24.03L79.31 24.03L79.31 24.03L79.3 24.03L79.3 24.03L79.3 24.03L79.29 24.03L79.29 24.02L79.29 24.02L79.28 24.02L79.28 24.02L79.28 24.02L79.28 24.02L79.27 24.01L79.27 24.01L79.27 24.01L79.26 24.01L79.26 24L79.26 24L79.26 24L79.26 24L79.25 23.99L79.25 23.99L79.25 23.99L79.25 23.99L79.25 23.98L79.25 23.98L79.24 23.98L79.24 23.97L79.24 23.97L79.24 23.97L79.24 23.96L79.24 23.96L79.24 23.96L79.24 23.95L79.24 23.95L79.24 23.94L79.24 22.18L77.48 22.18L77.47 22.18L77.47 22.18L77.47 22.18L77.46 22.18L77.46 22.18L77.46 22.18L77.45 22.18L77.45 22.18L77.45 22.18L77.44 22.18L77.44 22.18L77.44 22.17L77.43 22.17L77.43 22.17L77.43 22.17L77.43 22.17L77.42 22.16L77.42 22.16L77.42 22.16L77.42 22.16L77.41 22.16L77.41 22.15L77.41 22.15L77.41 22.15L77.4 22.15L77.4 22.14L77.4 22.14L77.4 22.14L77.4 22.13L77.4 22.13L77.4 22.13L77.39 22.12L77.39 22.12L77.39 22.12L77.39 22.11L77.39 22.11L77.39 22.11L77.39 22.1L77.39 22.1L77.39 22.1L77.39 20.69L77.39 20.68L77.39 20.68L77.39 20.68L77.39 20.67L77.39 20.67L77.39 20.67L77.39 20.66L77.39 20.66L77.4 20.66L77.4 20.65L77.4 20.65L77.4 20.65L77.4 20.64L77.4 20.64L77.4 20.64L77.41 20.64L77.41 20.63L77.41 20.63L77.41 20.63L77.42 20.62L77.42 20.62L77.42 20.62L77.42 20.62L77.43 20.62L77.43 20.61L77.43 20.61L77.43 20.61L77.44 20.61L77.44 20.61L77.44 20.61L77.45 20.6L77.45 20.6L77.45 20.6L77.46 20.6L77.46 20.6L77.46 20.6L77.47 20.6L77.47 20.6L77.47 20.6L77.48 20.6L79.24 20.6L79.24 18.84L79.24 18.83L79.24 18.83L79.24 18.83L79.24 18.82L79.24 18.82L79.24 18.82L79.24 18.81L79.24 18.81L79.24 18.81L79.25 18.8L79.25 18.8L79.25 18.8L79.25 18.79L79.25 18.79L79.25 18.79L79.26 18.79L79.26 18.78L79.26 18.78L79.26 18.78L79.26 18.78L79.27 18.77L79.27 18.77L79.27 18.77L79.28 18.77L79.28 18.77L79.28 18.76L79.28 18.76L79.29 18.76L79.29 18.76L79.29 18.76L79.3 18.76L79.3 18.75L79.3 18.75L79.31 18.75L79.31 18.75L79.31 18.75L79.32 18.75L79.32 18.75L79.32 18.75L79.33 18.75L80.74 18.75L80.74 18.75L80.74 18.75Z" id="e3S11zVuE"></path><path d="M57.04 59.38L64.97 58.81L64.97 48.46L56.25 47.8L57.04 59.38Z" id="bJrlO0fWo"></path><path d="M72.37 67.78L64.96 67.32L64.96 58.94L73.11 58.41L72.37 67.78Z" id="baHb0neE3"></path><path d="M36.57 39.87L44.5 38.77L45.38 30.19L37.5 31.25L36.57 39.87Z" id="b1kePtVB72"></path></defs><g><g><g><g><use xlink:href="#f2FXLwlxVy" opacity="1" fill-opacity="0" stroke="#ffffff" stroke-width="3" stroke-opacity="1"></use></g></g><g><g><g><use xlink:href="#aB4FAAPPn" opacity="1" fill-opacity="0" stroke="#ffffff" stroke-width="2" stroke-opacity="1"></use></g></g><g><g><use xlink:href="#f1tRRRcoek" opacity="1" fill-opacity="0" stroke="#ffffff" stroke-width="2" stroke-opacity="1"></use></g></g><g><g><use xlink:href="#c1TQCEBOld" opacity="1" fill-opacity="0" stroke="#ffffff" stroke-width="2" stroke-opacity="1"></use></g></g><g><g><use xlink:href="#aZFyuYjKw" opacity="1" fill-opacity="0" stroke="#ffffff" stroke-width="2" stroke-opacity="1"></use></g></g><g><g><use xlink:href="#b58IYEB44I" opacity="1" fill-opacity="0" stroke="#ffffff" stroke-width="2" stroke-opacity="1"></use></g></g><g><g><use xlink:href="#eF3MNk9xs" opacity="1" fill-opacity="0" stroke="#ffffff" stroke-width="2" stroke-opacity="1"></use></g></g><g><g><use xlink:href="#a2xk8d9FDE" opacity="1" fill-opacity="0" stroke="#ffffff" stroke-width="2" stroke-opacity="1"></use></g></g><g><g><use xlink:href="#cn0P4w3rH" opacity="1" fill-opacity="0" stroke="#ffffff" stroke-width="2" stroke-opacity="1"></use></g></g><g><g><use xlink:href="#e1KV1ekzit" opacity="1" fill-opacity="0" stroke="#ffffff" stroke-width="2" stroke-opacity="1"></use></g></g><g><g><use xlink:href="#a1rLI7IxJE" opacity="1" fill-opacity="0" stroke="#ffffff" stroke-width="2" stroke-opacity="1"></use></g></g><g><g><use xlink:href="#abSD5KLEJ" opacity="1" fill-opacity="0" stroke="#ffffff" stroke-width="2" stroke-opacity="1"></use></g></g><g><g><use xlink:href="#d5RtFtczsV" opacity="1" fill-opacity="0" stroke="#ffffff" stroke-width="2" stroke-opacity="1"></use></g></g></g><g><g><use xlink:href="#c1kF1LDQVB" opacity="1" fill-opacity="0" stroke="#ffffff" stroke-width="2" stroke-opacity="1"></use></g></g><g><g><use xlink:href="#e1bhXnf2ol" opacity="1" fill-opacity="0" stroke="#ffffff" stroke-width="2" stroke-opacity="1"></use></g></g><g><g><use xlink:href="#a3EUWMosf2" opacity="1" fill="#ffffff" fill-opacity="1"></use></g><g><use xlink:href="#bmVKLUiyJ" opacity="1" fill="#ffffff" fill-opacity="1"></use></g><g><use xlink:href="#a13cFyPJvB" opacity="1" fill="#ffffff" fill-opacity="1"></use></g><g><use xlink:href="#cv0Of5wbz" opacity="1" fill="#ffffff" fill-opacity="1"></use></g><g><use xlink:href="#e3S11zVuE" opacity="1" fill="#ffffff" fill-opacity="1"></use></g></g><g><use xlink:href="#bJrlO0fWo" opacity="1" fill="#ffffff" fill-opacity="1"></use></g><g><use xlink:href="#baHb0neE3" opacity="1" fill="#ffffff" fill-opacity="1"></use></g><g><use xlink:href="#b1kePtVB72" opacity="1" fill="#ffffff" fill-opacity="1"></use></g></g></g></svg>